<svg xmlns="http://www.w3.org/2000/svg"><symbol id="complete" viewBox="0 0 408.58 408.58"><path fill="#FF2F5B" d="M204.288 0C91.648 0 0 91.648 0 204.288s91.648 204.288 204.288 204.288 204.288-91.648 204.288-204.288S316.928 0 204.288 0zm114.176 150.528l-130.56 129.536c-7.68 7.68-19.968 8.192-28.16.512L90.624 217.6c-8.192-7.68-8.704-20.48-1.536-28.672 7.68-8.192 20.48-8.704 28.672-1.024l54.784 50.176L289.28 121.344c8.192-8.192 20.992-8.192 29.184 0s8.192 20.992 0 29.184z" data-original="#000000"/></symbol><symbol id="files" viewBox="0 0 512 512"><path fill="#FF2F5B" d="M432 192H306.75c-27.99 0-50.75-22.76-50.75-50.75V16c0-5.76 1.52-11.24 4.27-16H98.75C79.59 0 64 15.59 64 34.75v442.5C64 496.41 79.59 512 98.75 512h314.5c19.16 0 34.75-15.59 34.75-34.75V187.73a31.903 31.903 0 0 1-16 4.27zM196.69 292.69c6.25-6.25 16.37-6.25 22.62 0L240 313.37V216c0-8.84 7.16-16 16-16s16 7.16 16 16v97.37l20.69-20.68c6.24-6.25 16.38-6.25 22.62 0 6.25 6.24 6.25 16.38 0 22.62l-48 48c-3.373 3.46-8.231 5.022-12.85 4.62-8.012-1.07-5.485-.335-57.77-52.62-6.25-6.24-6.25-16.38 0-22.62zM336 432H176c-8.84 0-16-7.16-16-16s7.16-16 16-16h160c8.84 0 16 7.16 16 16s-7.16 16-16 16zm-29.25-272H432L288 16v125.25c0 10.34 8.41 18.75 18.75 18.75z" data-original="#000000"/></symbol><symbol id="code" viewBox="0 0 512 512"><path fill="#FF2F5B" d="M0 177.711v293.245h512V177.711zm307.721 96.556l21.213-21.213L399.88 324l-70.946 70.946-21.213-21.213L357.454 324zm-45.03-49.52l29.285 6.508-42.667 192-29.285-6.508zm-79.624 28.307l21.213 21.213L154.547 324l49.733 49.733-21.213 21.213L112.121 324zM512 147.711V41.044H0v106.667zm-409.068-38.545h-30v-30h30zm62.701 0h-30v-30h30zm62.7 0h-30v-30h30z" data-original="#000000"/></symbol><symbol id="team" viewBox="0 0 512 512"><path fill="#FF2F5B" d="M438.09 273.32h-39.596c4.036 11.05 6.241 22.975 6.241 35.404v149.65c0 5.182-.902 10.156-2.543 14.782h65.461c24.453 0 44.346-19.894 44.346-44.346v-81.581c.001-40.753-33.155-73.909-73.909-73.909zm-330.825 35.405c0-12.43 2.205-24.354 6.241-35.404H73.91c-40.754 0-73.91 33.156-73.91 73.91v81.581c0 24.452 19.893 44.346 44.346 44.346h65.462a44.144 44.144 0 0 1-2.543-14.783v-149.65zm193.996-73.91h-90.522c-40.754 0-73.91 33.156-73.91 73.91v149.65c0 8.163 6.618 14.782 14.782 14.782h208.778c8.164 0 14.782-6.618 14.782-14.782v-149.65c0-40.754-33.156-73.91-73.91-73.91zM256 38.84c-49.012 0-88.886 39.874-88.886 88.887 0 33.245 18.349 62.28 45.447 77.524 12.853 7.23 27.671 11.362 43.439 11.362s30.586-4.132 43.439-11.362c27.099-15.244 45.447-44.28 45.447-77.524 0-49.012-39.874-88.887-88.886-88.887zM99.918 121.689c-36.655 0-66.475 29.82-66.475 66.475 0 36.655 29.82 66.475 66.475 66.475a66.095 66.095 0 0 0 26.195-5.388c13.906-5.987 25.372-16.585 32.467-29.86a66.05 66.05 0 0 0 7.813-31.227c0-36.654-29.82-66.475-66.475-66.475zm312.164 0c-36.655 0-66.475 29.82-66.475 66.475a66.045 66.045 0 0 0 7.813 31.227c7.095 13.276 18.561 23.874 32.467 29.86a66.095 66.095 0 0 0 26.195 5.388c36.655 0 66.475-29.82 66.475-66.475 0-36.655-29.82-66.475-66.475-66.475z" data-original="#000000"/></symbol><symbol id="down" viewBox="0 0 512 512"><path fill="#FFF" d="M382.56 233.376A15.96 15.96 0 0 0 368 224h-64V16c0-8.832-7.168-16-16-16h-64c-8.832 0-16 7.168-16 16v208h-64a16.013 16.013 0 0 0-14.56 9.376c-2.624 5.728-1.6 12.416 2.528 17.152l112 128A15.946 15.946 0 0 0 256 384c4.608 0 8.992-2.016 12.032-5.472l112-128c4.16-4.704 5.12-11.424 2.528-17.152z" data-original="#000000"/><path fill="#FFF" d="M432 352v96H80v-96H16v128c0 17.696 14.336 32 32 32h416c17.696 0 32-14.304 32-32V352h-64z" data-original="#000000"/></symbol><symbol id="cv" viewBox="0 0 24 24"><path fill="#FFF" d="M8.75 17.612v4.638a.751.751 0 0 0 1.354.444l2.713-3.692zM23.685.139a.75.75 0 0 0-.782-.054l-22.5 11.75a.752.752 0 0 0 .104 1.375l6.255 2.138 13.321-11.39L9.775 16.377l10.483 3.583a.753.753 0 0 0 .984-.599l2.75-18.5a.751.751 0 0 0-.307-.722z" data-original="#000000"/></symbol><symbol id="prod" viewBox="0 0 682.67 682.67"><defs><clipPath id="a"><path fill="#ff2f5b" d="M0 512h512V0H0z" data-original="#000000"/></clipPath></defs><g clip-path="url(#a)" transform="matrix(1.33333 0 0 -1.33333 0 682.667)"><path fill="#FF2F5B" d="M386.103 446.867a7.5 7.5 0 1 0-15 0 7.5 7.5 0 0 0 15 0m39.915 0a7.5 7.5 0 1 0-15 0 7.5 7.5 0 0 0 15 0m39.913 0a7.5 7.5 0 1 0-15 0 7.5 7.5 0 0 0 15 0" data-original="#000000"/><path fill="none" stroke="#FF2F5B" stroke-linecap="round" stroke-linejoin="round" stroke-miterlimit="10" stroke-width="15" d="M291.58 253.806l-59.8 34.526c-6.907 3.988-15.541-.997-15.541-8.972v-69.053c0-7.975 8.634-12.96 15.54-8.972l59.802 34.526c6.907 3.988 6.907 13.957 0 17.945l-59.801 34.526c-6.907 3.988-15.541-.997-15.541-8.972v-69.053c0-7.975 8.634-12.96 15.54-8.972l59.802 34.526c6.907 3.988 6.907 13.957 0 17.945z" data-original="#000000"/><path fill="none" stroke="#FF2F5B" stroke-linecap="round" stroke-linejoin="round" stroke-miterlimit="10" stroke-width="15" d="M152 135.333H79.607A7.607 7.607 0 0 0 72 142.94v203.786a7.607 7.607 0 0 0 7.607 7.607h353.786a7.607 7.607 0 0 0 7.607-7.607V142.94a7.607 7.607 0 0 0-7.607-7.607H182m-71.845-68.928h-2.31c-8.724 0-15.862 7.138-15.862 15.863v2.31c0 8.724 7.138 15.862 15.862 15.862h2.31c8.725 0 15.863-7.138 15.863-15.863v-2.309c0-8.725-7.138-15.863-15.863-15.863zm16.827 17.018H441m-369 0h19.982" data-original="#000000"/><path fill="none" stroke="#FF2F5B" stroke-linecap="round" stroke-linejoin="round" stroke-miterlimit="10" stroke-width="15" d="M186.634 490.566h289.59c15.616 0 28.276-12.66 28.276-28.276V49.71c0-15.616-12.66-28.276-28.276-28.276H35.776C20.16 21.434 7.5 34.094 7.5 49.71v412.58c0 15.616 12.66 28.276 28.276 28.276h120.858M11.5 403.168h489.115" data-original="#000000"/></g></symbol><symbol id="ui-ux" viewBox="0 0 60 60"><g fill="#FF2F5B"><path d="M43 0H17a5.006 5.006 0 0 0-5 5v50a5.006 5.006 0 0 0 5 5h26a5.006 5.006 0 0 0 5-5V5a5.006 5.006 0 0 0-5-5zM24 2h12v1a1 1 0 0 1-1 1H25a1 1 0 0 1-1-1zm22 53a3 3 0 0 1-3 3H17a3 3 0 0 1-3-3V5a3 3 0 0 1 3-3h5v1a3 3 0 0 0 3 3h10a3 3 0 0 0 3-3V2h5a3 3 0 0 1 3 3z" data-original="#000000"/><path d="M37 54H23a1 1 0 0 0 0 2h14a1 1 0 0 0 0-2zm1-15a1 1 0 0 0 0-2h-6a1 1 0 0 0 0 2h2v8h-2a1 1 0 0 0 0 2h6a1 1 0 0 0 0-2h-2v-8zm-16-2a1 1 0 0 0-1 1v7a4 4 0 0 0 8 0v-7a1 1 0 0 0-2 0v7a2 2 0 0 1-4 0v-7a1 1 0 0 0-1-1zm3-15a4 4 0 0 0 4-4v-7a1 1 0 0 0-2 0v7a2 2 0 0 1-4 0v-7a1 1 0 0 0-2 0v7a4 4 0 0 0 4 4zm6.485-.143a1 1 0 0 0 1.372-.342L35 17.944l2.143 3.571a1 1 0 0 0 1.714-1.03L36.166 16l2.691-4.485a1 1 0 0 0-1.714-1.03L35 14.056l-2.143-3.571a1 1 0 0 0-1.714 1.03L33.834 16l-2.691 4.485a1 1 0 0 0 .342 1.372zM41.72 25.04l-24 7a1 1 0 1 0 .56 1.92l24-7a1 1 0 1 0-.56-1.92z" data-original="#000000"/></g></symbol><symbol id="dev" viewBox="0 0 682.67 682.67"><defs><clipPath id="a"><path fill="#ff2f5b" d="M0 512h512V0H0z" data-original="#000000"/></clipPath></defs><g fill="none" stroke="#FF2F5B" stroke-linecap="round" stroke-linejoin="round" stroke-miterlimit="10" stroke-width="20.18" clip-path="url(#a)" transform="matrix(1.33333 0 0 -1.33333 0 682.667)"><path d="M10 356.674h455.519M93.507 399.228c13.096 0 23.782 10.652 23.782 23.74 0 13.09-10.686 23.741-23.782 23.741-13.067 0-23.754-10.652-23.754-23.74 0-13.09 10.687-23.741 23.754-23.741zM299.95 446.71h89.46c13.067 0 23.754-10.681 23.754-23.741 0-13.061-10.687-23.741-23.754-23.741h-89.46c-13.067 0-23.754 10.68-23.754 23.741 0 13.06 10.687 23.741 23.754 23.741zm-118.741-47.482c13.096 0 23.782 10.652 23.782 23.74 0 13.09-10.686 23.741-23.782 23.741-13.067 0-23.754-10.652-23.754-23.74 0-13.09 10.687-23.741 23.754-23.741zm-18.793-119.472l-20.013-83.747m66.104 7.564l28.317 31.788c1.247 1.388 1.247 3.654 0 5.042l-28.317 31.788M96.314 203.573l-28.317 31.788c-1.249 1.388-1.249 3.654 0 5.042l28.316 31.788m308.206-36.631c10.94-2.437 21.174-6.743 30.387-12.522l8.192 8.159c4.847 4.873 12.812 4.873 17.688 0l12.897-12.891c4.875-4.873 4.875-12.834 0-17.68l-8.164-8.186a96.571 96.571 0 0 0 12.473-30.088h11.479c6.889 0 12.529-5.638 12.529-12.494v-18.274c0-6.855-5.64-12.493-12.53-12.493h-11.535a96.87 96.87 0 0 0-12.416-29.918l8.164-8.16c4.875-4.872 4.875-12.833 0-17.678l-12.897-12.92c-4.876-4.872-12.841-4.872-17.688 0l-8.192 8.16a96.692 96.692 0 0 0-30.047-12.437V34.523c0-6.885-5.641-12.523-12.5-12.523h-18.283c-6.861 0-12.501 5.638-12.501 12.523v11.643c-10.772 2.437-20.891 6.715-29.991 12.41l-8.163-8.16c-4.876-4.873-12.84-4.873-17.688 0l-12.925 12.919c-4.848 4.845-4.848 12.806 0 17.679l8.19 8.159a96.251 96.251 0 0 0-12.442 29.918h-11.594c-6.887 0-12.501 5.638-12.501 12.493v18.274c0 6.856 5.614 12.494 12.5 12.494h11.567a96.76 96.76 0 0 0 12.273 29.776l-8.22 8.244c-4.875 4.845-4.875 12.806 0 17.679l12.897 12.89c4.876 4.874 12.84 4.874 17.688 0l8.135-8.102a97.26 97.26 0 0 0 29.934 12.55v11.53c0 6.886 5.612 12.524 12.5 12.524h18.255c6.888 0 12.529-5.638 12.529-12.523z" data-original="#000000"/><path d="M383.23 192.241c28.46 0 51.533-23.062 51.533-51.534 0-28.445-23.073-51.506-51.532-51.506-28.487 0-51.562 23.061-51.562 51.506 0 28.472 23.075 51.534 51.562 51.534zM106.433 119.09H47.246C26.782 119.09 10 139.12 10 163.57v281.95C10 469.999 26.752 490 47.246 490h381.027c20.494 0 37.246-20.03 37.246-44.48V226.466M276.962 119.09h-81.154m-44.588 0h.198" data-original="#000000"/></g></symbol><symbol id="ui-ux2" viewBox="0 0 450 450"><path fill="#FF2F5B" d="M408.52 435.89H42c-20.81 0-37.74-16.93-37.74-37.74V53.33c0-20.81 16.93-37.74 37.74-37.74h366.53c20.81 0 37.74 16.93 37.74 37.74v344.83c-.01 20.8-16.94 37.73-37.75 37.73zM42 25.59c-15.29 0-27.74 12.44-27.74 27.74v344.83c0 15.29 12.44 27.74 27.74 27.74h366.53c15.29 0 27.74-12.44 27.74-27.74V53.33c0-15.29-12.44-27.74-27.74-27.74z" data-original="#000000"/><path fill="#FF2F5B" d="M441.26 118.3h-432c-2.76 0-5-2.24-5-5s2.24-5 5-5h432c2.76 0 5 2.24 5 5s-2.24 5-5 5z" data-original="#000000"/><path fill="#FF2F5B" d="M347.07 118.3c-2.76 0-5-2.24-5-5V20.59c0-2.76 2.24-5 5-5s5 2.24 5 5v92.71c0 2.76-2.24 5-5 5zm-243.62 0c-2.76 0-5-2.24-5-5V20.59c0-2.76 2.24-5 5-5s5 2.24 5 5v92.71c0 2.76-2.24 5-5 5zm67.68-31.31c-11.05 0-20.04-8.99-20.04-20.04s8.99-20.04 20.04-20.04 20.04 8.99 20.04 20.04-8.99 20.04-20.04 20.04zm0-30.09c-5.54 0-10.04 4.5-10.04 10.04s4.5 10.04 10.04 10.04 10.04-4.5 10.04-10.04-4.51-10.04-10.04-10.04zm54.13 30.09c-11.05 0-20.04-8.99-20.04-20.04s8.99-20.04 20.04-20.04 20.04 8.99 20.04 20.04-8.99 20.04-20.04 20.04zm0-30.09c-5.54 0-10.04 4.5-10.04 10.04s4.5 10.04 10.04 10.04 10.04-4.5 10.04-10.04-4.5-10.04-10.04-10.04zm54.13 30.09c-11.05 0-20.04-8.99-20.04-20.04s8.99-20.04 20.04-20.04 20.04 8.99 20.04 20.04-8.99 20.04-20.04 20.04zm0-30.09c-5.54 0-10.04 4.5-10.04 10.04s4.5 10.04 10.04 10.04 10.04-4.5 10.04-10.04-4.5-10.04-10.04-10.04zM56.36 84.03c-2.76 0-5-2.24-5-5V51.41c0-2.76 2.24-5 5-5s5 2.24 5 5v27.62c0 2.76-2.24 5-5 5z" data-original="#000000"/><path fill="#FF2F5B" d="M70.16 70.22H42.55c-2.76 0-5-2.24-5-5s2.24-5 5-5h27.62c2.76 0 5 2.24 5 5s-2.24 5-5.01 5zm324 13.81c-2.76 0-5-2.24-5-5V51.41c0-2.76 2.24-5 5-5s5 2.24 5 5v27.62c0 2.76-2.23 5-5 5z" data-original="#000000"/><path fill="#FF2F5B" d="M407.97 70.22h-27.62c-2.76 0-5-2.24-5-5s2.24-5 5-5h27.62c2.76 0 5 2.24 5 5s-2.24 5-5 5zM376.46 377.9H74.06c-17.31 0-31.4-14.09-31.4-31.4V197.7c0-17.31 14.09-31.4 31.4-31.4h302.4c17.31 0 31.4 14.09 31.4 31.4v148.8c0 17.31-14.09 31.4-31.4 31.4zM74.06 176.3c-11.8 0-21.4 9.6-21.4 21.4v148.8c0 11.8 9.6 21.4 21.4 21.4h302.4c11.8 0 21.4-9.6 21.4-21.4V197.7c0-11.8-9.6-21.4-21.4-21.4z" data-original="#000000"/><path fill="#FF2F5B" d="M149.15 350.03c-37.34 0-67.73-30.38-67.73-67.72v-83.15c0-2.76 2.24-5 5-5s5 2.24 5 5v83.15c0 31.83 25.9 57.72 57.73 57.72s57.73-25.9 57.73-57.72v-83.15c0-2.76 2.24-5 5-5s5 2.24 5 5v83.15c-.01 37.34-30.39 67.72-67.73 67.72zm113.8 0c-.98 0-1.98-.29-2.84-.89-2.27-1.57-2.83-4.69-1.26-6.96l101.14-145.87c1.57-2.27 4.69-2.83 6.96-1.26s2.83 4.69 1.26 6.96L267.07 347.88a5.01 5.01 0 0 1-4.12 2.15z" data-original="#000000"/><path fill="#FF2F5B" d="M364.1 350.03c-1.58 0-3.14-.75-4.11-2.15L258.85 202.01c-1.57-2.27-1.01-5.38 1.26-6.96s5.38-1.01 6.96 1.26l101.14 145.87a5.006 5.006 0 0 1-1.26 6.96c-.87.6-1.87.89-2.85.89z" data-original="#000000"/></symbol></svg>