<svg xmlns="http://www.w3.org/2000/svg"><symbol id="arrowdown" viewBox="0 0 451.85 451.85"><path fill="#FFF" d="M225.923 354.706c-8.098 0-16.195-3.092-22.369-9.263L9.27 151.157c-12.359-12.359-12.359-32.397 0-44.751 12.354-12.354 32.388-12.354 44.748 0l171.905 171.915 171.906-171.909c12.359-12.354 32.391-12.354 44.744 0 12.365 12.354 12.365 32.392 0 44.751L248.292 345.449c-6.177 6.172-14.274 9.257-22.369 9.257z" data-original="#000000"/></symbol><symbol id="ba" viewBox="0 0 495.64 495.64"><path fill="#1EC997" d="M111.383 311.449l25.71 25.71L181 292.824c-42.189-50.288-51.165-116.721-31.554-172.972l58.424 58.423c-.498 58.74 47.326 110.077 109.726 110.077 36.632-.001 69.123-18.047 89.064-45.712l-66.332-66.333-45.998 46.001L123.264 51.242V90.03h-30l.001-90h89.999v29.999l-38.787.001L294.33 179.883l45.998-46.002 80.878 80.877c13.264-37.921 5.193-82.514-26.018-113.726-39.988-39.986-102.799-42.548-145.7-8.454l-48.503-48.504c69.869-60.736 175.883-57.972 242.507 8.652 33.627 33.627 52.146 78.338 52.146 125.895 0 98.174-79.869 178.046-178.043 178.047-42.804 0-83.297-15.01-115.482-42.528l-43.808 44.233 25.814 25.815-111.38 111.383L0 422.832z" data-original="#000000"/><path fill="#1EC997" d="M255.12 405.609h239.999v30H255.12zm-90.001 60h180v29.999h-180z" data-original="#000000"/></symbol><symbol id="design" viewBox="0 0 512 512"><g fill="#1EC997"><path d="M335.274 258.137a86.38 86.38 0 0 1-24.67 50.62c-16.92 16.93-40.57 24.9-70.27 23.7-20.83-.83-30.45 4.62-32.03 5.61-6.38 5.59-14.48 8.65-23.03 8.65-9.35 0-18.14-3.64-24.75-10.25-11.41-11.41-13.25-29.01-5.46-42.42l5.59-8.86c1.9-4.63 4.47-13.77 3.87-28.54-1.19-29.71 6.78-53.35 23.7-70.27 13.86-13.85 31.58-22.43 50.74-24.72a81.83 81.83 0 0 1 17.05-35.46H55.034c-22.08 0-40.05 17.96-40.05 40.04v198.59h417.8v-197.19l-50.77 62.22a81.822 81.822 0 0 1-46.74 28.28zm-320.29 149.49c0 22.07 17.97 40.03 40.05 40.03h113.819v34.34h-25.228c-8.284 0-15 6.716-15 15s6.716 15 15 15h160.513c8.284 0 15-6.716 15-15s-6.716-15-15-15H278.91v-34.34h113.823c22.08 0 40.05-17.96 40.05-40.03v-12.8h-417.8v12.8z" data-original="#000000"/><path d="M182.1 307.834a.03.03 0 0 0-.008.008.008.008 0 0 0-.004.004l-.004.004-.005.005c-.001.003-.002.003-.005.005l-.001.001-.005.005-.001.001a.022.022 0 0 0-.004.005l-.001.001-.005.005-.001.001-.005.005a5 5 0 0 0 7.101 7.04c.306-.29 15.453-14.293 52.767-12.793 20.993.846 37.089-4.183 47.846-14.939 22.043-22.043 22.043-57.909 0-79.952-10.678-10.678-24.875-16.559-39.976-16.559s-29.298 5.88-39.976 16.559c-10.756 10.756-15.783 26.854-14.939 47.846 1.508 37.517-12.653 52.623-12.767 52.741l-.007.007zm151.874-80.537a51.7 51.7 0 0 0 25.16-16.76l19.166-23.488-68.276-68.276-23.39 19.104a51.625 51.625 0 0 0-16.81 25.14c15.46 3.63 29.64 11.5 41.15 23.01 11.78 11.78 19.45 26.13 23 41.27zm154.03-218.29a30.566 30.566 0 0 0-41.07-2.06L333.376 99.7l63.987 63.987 92.711-113.619a30.566 30.566 0 0 0-2.07-41.061z" data-original="#000000"/></g></symbol><symbol id="burgermenu" viewBox="0 0 24 24"><path fill="#FFF" d="M3.5 7.5h17a1.5 1.5 0 1 0 0-3h-17a1.5 1.5 0 1 0 0 3zm17 3h-17a1.5 1.5 0 1 0 0 3h17a1.5 1.5 0 1 0 0-3zm0 6h-17a1.5 1.5 0 1 0 0 3h17a1.5 1.5 0 1 0 0-3z" data-original="#000000"/></symbol><symbol id="dev" viewBox="0 0 682.67 682.67"><defs><clipPath id="b"><path fill="#1ec997" d="M0 512h512V0H0z" data-original="#000000"/></clipPath></defs><mask id="a"><rect width="100%" height="100%" fill="#FFF" data-original="#ffffff"/><g fill="#FFF"><path d="M0 0c-11.046 0-20 8.954-20 20s8.954 20 20 20 20-8.954 20-20S11.046 0 0 0" data-original="#ffffff" transform="matrix(1.33333 0 0 -1.33333 341.333 588)"/><path d="M0 0c9.08 0 18.052 5.984 20.515 14.648L65.94 174.447C69.586 187.272 59.865 200 46.426 200c-9.08 0-17.052-5.984-19.515-14.648L-18.515 25.553C-22.16 12.728-13.439 0 0 0" data-original="#ffffff" transform="matrix(1.33333 0 0 -1.33333 431.05 474.667)"/></g></mask><g mask="url(#a)"><g clip-path="url(#b)" transform="matrix(1.33333 0 0 -1.33333 0 682.667)"><path fill="none" stroke="#1EC997" stroke-linecap="round" stroke-miterlimit="10" stroke-width="40" d="M413 401v31.122c0 33.137-26.863 60-60 60H159c-33.137 0-60-26.863-60-60v-352c0-33.137 26.863-60 60-60h194c33.137 0 60 26.863 60 60V118" data-original="#000000"/><path fill="#1EC997" d="M256 71c-11.046 0-20 8.954-20 20s8.954 20 20 20 20-8.954 20-20-8.954-20-20-20" data-original="#000000"/><path fill="none" stroke="#1EC997" stroke-linecap="round" stroke-miterlimit="10" stroke-width="40" d="M236 421h40" data-original="#000000"/><path fill="#1EC997" d="M323.287 156c9.08 0 18.052 5.984 20.515 14.648l45.425 159.799c3.646 12.825-6.075 25.553-19.514 25.553-9.08 0-17.052-5.984-19.515-14.648l-45.426-159.799C301.127 168.728 309.848 156 323.287 156" data-original="#000000"/><path fill="none" stroke="#1EC997" stroke-linecap="round" stroke-linejoin="round" stroke-miterlimit="10" stroke-width="40" d="M256 317l-49.526-41.524c-12.632-10.728-12.632-30.224 0-40.952L256 193m178 124l48.526-41.524c12.632-10.728 12.632-30.224 0-40.952L434 193" data-original="#000000"/></g></g></symbol><symbol id="email" viewBox="0 0 512 512"><path fill="#1EC997" d="M331.756 277.251l-42.881 43.026c-17.389 17.45-47.985 17.826-65.75 0l-42.883-43.026L26.226 431.767C31.959 434.418 38.28 436 45 436h422c6.72 0 13.039-1.58 18.77-4.232L331.756 277.251z" data-original="#000000"/><path fill="#1EC997" d="M467 76H45c-6.72 0-13.041 1.582-18.772 4.233l164.577 165.123c.011.011.024.013.035.024a.05.05 0 0 1 .013.026l53.513 53.69c5.684 5.684 17.586 5.684 23.27 0l53.502-53.681s.013-.024.024-.035c0 0 .024-.013.035-.024L485.77 80.232C480.039 77.58 473.72 76 467 76zM4.786 101.212C1.82 107.21 0 113.868 0 121v270c0 7.132 1.818 13.79 4.785 19.788l154.283-154.783L4.786 101.212zm502.428-.002L352.933 256.005 507.214 410.79C510.18 404.792 512 398.134 512 391V121c0-7.134-1.82-13.792-4.786-19.79z" data-original="#000000"/></symbol><symbol id="gear" viewBox="0 0 512 512"><path fill="#FFF" d="M500.633 211.454l-58.729-14.443a193.856 193.856 0 0 0-13.55-32.256c8.818-14.678 27.349-45.571 27.349-45.571a15.001 15.001 0 0 0-2.256-18.325l-42.422-42.422a14.958 14.958 0 0 0-18.325-2.256L347.055 83.53a193.24 193.24 0 0 0-32.065-13.433l-14.443-58.729A14.996 14.996 0 0 0 286 0h-60c-6.885 0-12.891 4.688-14.546 11.367 0 0-10.005 40.99-14.429 58.715a192.571 192.571 0 0 0-34.043 14.502l-47.329-28.403c-5.918-3.516-13.447-2.607-18.325 2.256l-42.422 42.422a15.001 15.001 0 0 0-2.256 18.325l29.268 48.882a193.296 193.296 0 0 0-11.821 28.901l-58.729 14.487A14.994 14.994 0 0 0 0 226v60c0 6.885 4.688 12.891 11.367 14.546l58.744 14.443c3.56 11.294 8.188 22.266 13.799 32.798l-26.191 43.652a15.001 15.001 0 0 0 2.256 18.325l42.422 42.422c4.849 4.849 12.407 5.771 18.325 2.256 0 0 29.37-17.607 43.755-26.221a193.254 193.254 0 0 0 32.549 13.696l14.429 58.715C213.109 507.313 219.115 512 226 512h60a14.995 14.995 0 0 0 14.546-11.367l14.429-58.715a190.535 190.535 0 0 0 33.281-14.136c14.78 8.862 44.443 26.66 44.443 26.66 5.903 3.53 13.462 2.622 18.325-2.256l42.422-42.422a15.001 15.001 0 0 0 2.256-18.325l-26.968-44.927a192.1 192.1 0 0 0 13.169-31.523l58.729-14.443A14.993 14.993 0 0 0 512 286v-60a14.994 14.994 0 0 0-11.367-14.546zM256 361c-57.891 0-105-47.109-105-105s47.109-105 105-105 105 47.109 105 105-47.109 105-105 105z" data-original="#000000"/></symbol><symbol id="down" viewBox="0 0 24 24"><path d="M12 16a.749.749 0 0 1-.542-.232l-5.25-5.5A.75.75 0 0 1 6.75 9H9.5V3.25c0-.689.561-1.25 1.25-1.25h2.5c.689 0 1.25.561 1.25 1.25V9h2.75a.75.75 0 0 1 .542 1.268l-5.25 5.5A.749.749 0 0 1 12 16zm10.25 6H1.75C.785 22 0 21.215 0 20.25v-.5C0 18.785.785 18 1.75 18h20.5c.965 0 1.75.785 1.75 1.75v.5c0 .965-.785 1.75-1.75 1.75z" data-original="#000000"/></symbol><symbol id="homephone" viewBox="0 0 203.61 203.61"><path fill="#1EC997" d="M59.316 32.273v139.066c0 16.279-12.65 29.523-28.2 29.523h-2.915C12.651 200.863 0 187.619 0 171.339V32.273C0 15.995 12.651 2.75 28.201 2.75h2.915c15.55 0 28.2 13.245 28.2 29.523zm144.297 8.93V160.67c0 12.789-10.405 23.194-23.195 23.194H74.415a5 5 0 0 1-5-5V24.749a5 5 0 0 1 5-5h107.743c11.83 0 21.455 9.624 21.455 21.454zM110.59 150.696a6.393 6.393 0 1 0-12.785 0 6.393 6.393 0 0 0 12.785 0zm0-28.742a6.393 6.393 0 1 0-12.785 0 6.393 6.393 0 0 0 12.785 0zm0-28.742a6.393 6.393 0 1 0-12.785 0 6.393 6.393 0 0 0 12.785 0zm32.378 57.484a6.393 6.393 0 1 0-12.785 0 6.393 6.393 0 0 0 12.785 0zm0-28.742a6.393 6.393 0 1 0-12.785 0 6.393 6.393 0 0 0 12.785 0zm0-28.742a6.393 6.393 0 1 0-12.785 0 6.393 6.393 0 0 0 12.785 0zm32.378 57.484a6.393 6.393 0 1 0-12.785 0 6.393 6.393 0 0 0 12.785 0zm0-28.742a6.393 6.393 0 1 0-12.785 0 6.393 6.393 0 0 0 12.785 0zm0-28.742a6.393 6.393 0 1 0-12.785 0 6.393 6.393 0 0 0 12.785 0zm11.671-45.691c0-5.812-4.729-10.54-10.54-10.54H91.011a5 5 0 0 0-5 5v19.097a5 5 0 0 0 5 5h91.006a5 5 0 0 0 5-5V47.521z" data-original="#000000"/></symbol><symbol id="phone" viewBox="0 0 32 32"><path fill="#1EC997" d="M30.035 22.6c-.082-.065-6.035-4.356-7.669-4.048-.78.138-1.226.67-2.121 1.735-.144.172-.49.584-.759.877a12.517 12.517 0 0 1-1.651-.672 13.7 13.7 0 0 1-6.321-6.321 12.458 12.458 0 0 1-.672-1.651c.294-.27.706-.616.882-.764 1.06-.89 1.593-1.336 1.731-2.118.283-1.62-4.005-7.614-4.05-7.668A2.289 2.289 0 0 0 7.7 1C5.962 1 1 7.437 1 8.521c0 .063.091 6.467 7.988 14.5C17.013 30.909 23.416 31 23.479 31 24.564 31 31 26.038 31 24.3a2.283 2.283 0 0 0-.965-1.7z" data-original="#000000"/></symbol><symbol id="ratings" viewBox="0 0 512 512"><path fill="#FFC009" d="M94.525 244.688a6.521 6.521 0 0 0-5.267-4.439l-24.892-3.618-11.133-22.539c-2.197-4.458-9.49-4.458-11.687 0l-11.133 22.539-24.833 3.618a6.513 6.513 0 0 0-5.26 4.439 6.502 6.502 0 0 0 1.656 6.681l18.003 17.501-4.243 24.769a6.536 6.536 0 0 0 2.594 6.381 6.538 6.538 0 0 0 6.87.489l22.187-11.7 22.253 11.7c.952.502 1.995.75 3.031.75a6.611 6.611 0 0 0 3.846-1.238 6.54 6.54 0 0 0 2.594-6.381l-4.243-24.769 18.003-17.501a6.508 6.508 0 0 0 1.654-6.682zm104.289 0a6.521 6.521 0 0 0-5.267-4.439l-24.892-3.618-11.133-22.539c-2.197-4.458-9.49-4.458-11.687 0l-11.133 22.539-24.834 3.618a6.513 6.513 0 0 0-5.26 4.439 6.502 6.502 0 0 0 1.656 6.681l18.003 17.501-4.243 24.769a6.53 6.53 0 0 0 2.594 6.381 6.538 6.538 0 0 0 6.87.489l22.187-11.7 22.253 11.7c.952.502 1.995.75 3.031.75a6.611 6.611 0 0 0 3.846-1.238 6.54 6.54 0 0 0 2.594-6.381l-4.243-24.769 18.003-17.501a6.506 6.506 0 0 0 1.655-6.682zm104.289 0a6.521 6.521 0 0 0-5.267-4.439l-24.893-3.618-11.133-22.539c-2.197-4.458-9.49-4.458-11.687 0l-11.133 22.539-24.834 3.618a6.513 6.513 0 0 0-5.26 4.439 6.502 6.502 0 0 0 1.656 6.681l18.003 17.501-4.243 24.769a6.53 6.53 0 0 0 2.594 6.381 6.538 6.538 0 0 0 6.87.489l22.188-11.7 22.253 11.7c.952.502 1.995.75 3.031.75a6.611 6.611 0 0 0 3.846-1.238 6.54 6.54 0 0 0 2.594-6.381l-4.243-24.769 18.003-17.501a6.506 6.506 0 0 0 1.655-6.682zm104.289-.007a6.521 6.521 0 0 0-5.267-4.439l-24.892-3.618-11.133-22.538c-2.197-4.458-9.49-4.458-11.687 0l-11.133 22.539-24.834 3.618a6.513 6.513 0 0 0-5.26 4.439 6.502 6.502 0 0 0 1.656 6.681l18.003 17.501-4.243 24.769a6.536 6.536 0 0 0 2.594 6.381 6.54 6.54 0 0 0 6.87.489l22.188-11.7 22.253 11.7c.952.502 1.995.75 3.031.75a6.611 6.611 0 0 0 3.846-1.238 6.54 6.54 0 0 0 2.594-6.381l-4.243-24.769 18.003-17.501a6.507 6.507 0 0 0 1.654-6.683zm104.289.007a6.521 6.521 0 0 0-5.267-4.439l-24.892-3.617-11.133-22.539c-2.197-4.458-9.49-4.458-11.687 0l-11.133 22.539-24.834 3.617a6.515 6.515 0 0 0-5.26 4.439 6.502 6.502 0 0 0 1.656 6.681l18.003 17.501-4.243 24.769a6.536 6.536 0 0 0 2.594 6.381 6.541 6.541 0 0 0 6.87.489l22.188-11.7 22.253 11.7c.952.502 1.995.75 3.031.75a6.611 6.611 0 0 0 3.846-1.238 6.54 6.54 0 0 0 2.594-6.381l-4.243-24.769 18.003-17.501a6.508 6.508 0 0 0 1.654-6.682zm-31.222 17.227a6.522 6.522 0 0 0-1.884 5.775l2.594 15.135-13.603-7.15a6.457 6.457 0 0 0-3.031-.75 6.457 6.457 0 0 0-3.031.75l-13.531 7.131 2.594-15.115a6.514 6.514 0 0 0-1.884-5.775l-10.976-10.67 15.128-2.203a6.52 6.52 0 0 0 4.902-3.565l6.798-13.773 6.798 13.773a6.5 6.5 0 0 0 4.908 3.565l15.187 2.21-10.969 10.662z" data-original="#000000"/></symbol><symbol id="seo" viewBox="0 0 34 34"><path fill="#1EC997" d="M23.7 18.7c-1.7 3.5-5.3 6-9.5 6-5.7 0-10.5-4.7-10.5-10.5 0-5.7 4.6-10.5 10.5-10.5 2.8 0 5.5 1.1 7.5 3.1 1.2 1.2 2 2.6 2.5 4.1l2.3-2.3c-.7-1.5-1.6-2.8-2.8-4-2.6-2.5-6-4-9.6-4C6.7.7.6 6.8.6 14.2c0 7.5 6.1 13.5 13.5 13.5 7 0 12.6-5.3 13.4-11.8-1.5 1.4-2.1 2.8-3.8 2.8zm8.5 13.5c-1.5 1.5-4 1.5-5.6 0L22 27.6c1.1-.7 2.2-1.5 3.1-2.4 1-1 1.8-2 2.5-3.2l4.6 4.6c1.5 1.5 1.6 4 0 5.6z" data-original="#000000"/><path fill="#1EC997" d="M31.3 9.4l-1.9 1.9-5.2 5.1c-.4.4-1 .4-1.4 0l-3.3-3.3-5.2 5.2c-.4.4-1 .4-1.4 0L10.6 16l-3.3 3.3c-.4-.5-.8-1.2-1.1-1.8L9.9 14c.4-.4 1-.4 1.4 0l2.3 2.3 5.2-5.2c.4-.4 1-.4 1.4 0l2.4 2.4.9.9 5.3-5.3L29.9 8c.4-.4 1-.4 1.4 0s.4 1 0 1.4z" data-original="#000000"/></symbol><symbol id="uiux" viewBox="0 0 32 32"><g fill="#1EC997"><path d="M18.485 14.143a1 1 0 0 1 1.372.342L22 18.056l2.143-3.57a1 1 0 0 1 1.714 1.028L23.167 20l2.69 4.486a1 1 0 0 1-1.715 1.029L22 21.944l-2.143 3.57a1 1 0 0 1-1.715-1.028L20.834 20l-2.692-4.485a1 1 0 0 1 .343-1.372zM7 14a1 1 0 0 1 1 1v6a3 3 0 1 0 6 0v-6a1 1 0 1 1 2 0v6a5 5 0 0 1-10 0v-6a1 1 0 0 1 1-1z" data-original="#000000"/><path fill-rule="evenodd" d="M0 3.98A3 3 0 0 1 3 1h26a3 3 0 0 1 3 3v24a3 3 0 0 1-3 3H3a3 3 0 0 1-3-3V4zM2 11v17a1 1 0 0 0 1 1h26a1 1 0 0 0 1-1V11zm4-5a1 1 0 1 1-2 0 1 1 0 0 1 2 0zm2 1a1 1 0 1 0 0-2 1 1 0 0 0 0 2zm4-1a1 1 0 1 1-2 0 1 1 0 0 1 2 0z" clip-rule="evenodd" data-original="#000000"/></g></symbol><symbol id="webdesign" viewBox="0 0 24 24"><path fill="#1EC997" d="M22.72 3.659c.18-.34.28-.739.28-1.159a2.5 2.5 0 0 0-5 0A2.5 2.5 0 0 0 20.5 5c.42 0 .82-.1 1.16-.28l1.06 1.06a.746.746 0 0 0 1.06 0 .75.75 0 0 0 0-1.061zM19.5 2.5c0-.55.45-1 1-1s1 .45 1 1-.45 1-1 1-1-.45-1-1zM1.75 6h12.5C15.215 6 16 5.215 16 4.25v-2.5C16 .785 15.215 0 14.25 0H1.75C.785 0 0 .785 0 1.75v2.5C0 5.215.785 6 1.75 6z" data-original="#000000"/><circle cx="3" cy="21" r="3" fill="#1EC997" data-original="#000000"/><path fill="#1EC997" d="M23.25 18.5H8.75a.75.75 0 0 0 0 1.5h14.5a.75.75 0 0 0 0-1.5zm0 3H8.75a.75.75 0 0 0 0 1.5h14.5a.75.75 0 0 0 0-1.5zm-1-12.5H1.75C.785 9 0 9.785 0 10.75v2.5C0 14.215.785 15 1.75 15h20.5c.965 0 1.75-.785 1.75-1.75v-2.5C24 9.785 23.215 9 22.25 9z" data-original="#000000"/></symbol><symbol id="arrowup" viewBox="0 0 240.84 240.84"><path fill="#FFF" d="M129.007 57.819c-4.68-4.68-12.499-4.68-17.191 0L3.555 165.803c-4.74 4.74-4.74 12.427 0 17.155 4.74 4.74 12.439 4.74 17.179 0l99.683-99.406 99.671 99.418c4.752 4.74 12.439 4.74 17.191 0 4.74-4.74 4.74-12.427 0-17.155L129.007 57.819z" data-original="#000000"/></symbol></svg>