<svg xmlns="http://www.w3.org/2000/svg"><symbol id="cart" viewBox="0 0 512 512"><circle cx="226" cy="436" r="45" data-original="#000000"/><circle cx="377" cy="436" r="45" data-original="#000000"/><path d="M15 61.002h62.553l72.418 253.513-5.68 11.36c-14.956 29.88 6.755 65.127 40.254 65.127H437c8.291 0 15-6.709 15-15s-6.709-15-15-15H184.545c-11.139 0-18.419-11.729-13.418-21.709l4.146-8.291H437a15.012 15.012 0 0 0 14.429-10.884l60-210a15.04 15.04 0 0 0-2.446-13.154 15.048 15.048 0 0 0-11.982-5.962H117.323L103.29 41.885a15.013 15.013 0 0 0-14.429-10.884H15c-8.291 0-15 6.709-15 15s6.709 15.001 15 15.001z" data-original="#000000"/></symbol><symbol id="check" viewBox="0 0 511.99 511.99"><path fill="#8D7853" d="M500.088 83.681c-15.841-15.862-41.564-15.852-57.426 0L184.205 342.148 69.332 227.276c-15.862-15.862-41.574-15.862-57.436 0-15.862 15.862-15.862 41.574 0 57.436l143.585 143.585c7.926 7.926 18.319 11.899 28.713 11.899 10.394 0 20.797-3.963 28.723-11.899l287.171-287.181c15.862-15.851 15.862-41.574 0-57.435z" data-original="#000000"/></symbol><symbol id="usergroup" viewBox="0 0 80.13 80.13"><path fill="#8D7853" d="M48.355 17.922c3.705 2.323 6.303 6.254 6.776 10.817a11.69 11.69 0 0 0 4.966 1.112c6.491 0 11.752-5.261 11.752-11.751 0-6.491-5.261-11.752-11.752-11.752-6.429.002-11.644 5.169-11.742 11.574zm-7.699 24.062c6.491 0 11.752-5.262 11.752-11.752s-5.262-11.751-11.752-11.751c-6.49 0-11.754 5.262-11.754 11.752s5.264 11.751 11.754 11.751zm4.985.801h-9.972c-8.297 0-15.047 6.751-15.047 15.048v12.195l.031.191.84.263c7.918 2.474 14.797 3.299 20.459 3.299 11.059 0 17.469-3.153 17.864-3.354l.785-.397h.084V57.833c.003-8.297-6.747-15.048-15.044-15.048zm19.443-12.132h-9.895a14.483 14.483 0 0 1-4.47 10.088c7.375 2.193 12.771 9.032 12.771 17.11v3.758c9.77-.358 15.4-3.127 15.771-3.313l.785-.398h.084V45.699c0-8.296-6.75-15.046-15.046-15.046zm-45.049-.8c2.299 0 4.438-.671 6.25-1.814a14.544 14.544 0 0 1 5.467-9.276c.012-.22.033-.438.033-.66 0-6.491-5.262-11.752-11.75-11.752-6.492 0-11.752 5.261-11.752 11.752 0 6.488 5.26 11.75 11.752 11.75zm10.554 10.888a14.492 14.492 0 0 1-4.467-10.032c-.367-.027-.73-.056-1.104-.056h-9.971C6.75 30.653 0 37.403 0 45.699v12.197l.031.188.84.265c6.352 1.983 12.021 2.897 16.945 3.185v-3.683c.002-8.078 5.396-14.915 12.773-17.11z" data-original="#000000"/></symbol><symbol id="hart" viewBox="0 0 391.84 391.84"><path fill="#8D7853" d="M285.257 35.528c58.743.286 106.294 47.836 106.58 106.58 0 107.624-195.918 214.204-195.918 214.204S0 248.165 0 142.108c0-58.862 47.717-106.58 106.58-106.58a105.534 105.534 0 0 1 89.339 48.065 106.578 106.578 0 0 1 89.338-48.065z" data-original="#d7443e"/></symbol><symbol id="gear" viewBox="0 0 512 512"><path d="M500.633 211.454l-58.729-14.443a193.856 193.856 0 0 0-13.55-32.256c8.818-14.678 27.349-45.571 27.349-45.571a15.001 15.001 0 0 0-2.256-18.325l-42.422-42.422a14.958 14.958 0 0 0-18.325-2.256L347.055 83.53a193.24 193.24 0 0 0-32.065-13.433l-14.443-58.729A14.996 14.996 0 0 0 286 0h-60c-6.885 0-12.891 4.688-14.546 11.367 0 0-10.005 40.99-14.429 58.715a192.571 192.571 0 0 0-34.043 14.502l-47.329-28.403c-5.918-3.516-13.447-2.607-18.325 2.256l-42.422 42.422a15.001 15.001 0 0 0-2.256 18.325l29.268 48.882a193.296 193.296 0 0 0-11.821 28.901l-58.729 14.487A14.994 14.994 0 0 0 0 226v60c0 6.885 4.688 12.891 11.367 14.546l58.744 14.443c3.56 11.294 8.188 22.266 13.799 32.798l-26.191 43.652a15.001 15.001 0 0 0 2.256 18.325l42.422 42.422c4.849 4.849 12.407 5.771 18.325 2.256 0 0 29.37-17.607 43.755-26.221a193.254 193.254 0 0 0 32.549 13.696l14.429 58.715C213.109 507.313 219.115 512 226 512h60a14.995 14.995 0 0 0 14.546-11.367l14.429-58.715a190.535 190.535 0 0 0 33.281-14.136c14.78 8.862 44.443 26.66 44.443 26.66 5.903 3.53 13.462 2.622 18.325-2.256l42.422-42.422a15.001 15.001 0 0 0 2.256-18.325l-26.968-44.927a192.1 192.1 0 0 0 13.169-31.523l58.729-14.443A14.993 14.993 0 0 0 512 286v-60a14.994 14.994 0 0 0-11.367-14.546zM256 361c-57.891 0-105-47.109-105-105s47.109-105 105-105 105 47.109 105 105-47.109 105-105 105z" data-original="#000000"/></symbol></svg>